<svg width="130" height="38" fill="none" xmlns="http://www.w3.org/2000/svg"><path fill-rule="evenodd" clip-rule="evenodd" d="M124.71 32.099c-3.502 3.926-8.133 5.893-13.462 5.894-26.866 0-53.732.004-80.598.007-3.97-.004-7.941-.003-11.912-.013C8.33 37.959-.042 29.427 0 18.895.042 8.487 8.42.052 18.756.036 30.526.02 42.297.026 54.067.02c18.927.003 37.854-.07 56.78.047 8.508.054 14.642 4.19 17.772 12.25 2.845 7.325 1.175 14.077-3.909 19.782zM111.742 1.33c-19.507-.01-39.015 0-58.521 0-7.159.29-14.292-.61-21.451-.45-2.32.053-4.61.371-6.974.103-3.518-.4-7.122-.193-10.55.702-7.93 2.067-13.07 8.958-13.161 17.249-.11 9.86 7.536 17.744 17.234 17.762 3.97.007 7.94 0 11.91-.001 27.097 0 54.194 0 81.291-.005 1.204 0 2.399 0 3.598-.25 7.13-1.492 13.922-8.793 13.548-17.97-.39-9.546-7.522-17.133-16.925-17.139zm2.458 21.605c.646 1.476.22 2.163-.994 2.143-.765.124-1.207-.594-1.706-1.013-1.235-1.04-2.293-1.083-3.486.044-.653.617-1.489 1.392-2.426.8-1.089-.688-.373-1.757.004-2.49 1.062-2.066-.29-2.97-1.615-3.97-.591-.445-1.527-.747-1.169-1.778.354-1.023 1.319-.761 2.01-.654 2.114.329 3.157-.628 3.598-2.628.155-.708.205-1.661 1.289-1.702 1.078-.04 1.272.876 1.38 1.588.338 2.222 1.545 3.037 3.687 2.732.663-.095 1.515-.232 1.827.654.338.955-.387 1.556-1.047 1.885-2.035 1.016-2.215 2.415-1.352 4.39zm-22.66-.004c.266.607.82 1.356 0 1.921-.745.513-1.453.23-2.087-.379-1.462-1.402-2.93-1.741-4.482-.058-.47.511-1.14.85-1.923.604-.674-.213-.446-.789-.532-1.284.043-.249.021-.573.155-.805 1.159-2.027.603-3.473-1.378-4.535-.605-.324-1.314-.731-1.07-1.64.296-1.09 1.25-.846 1.94-.739 2.192.343 3.288-.656 3.72-2.739.149-.723.206-1.656 1.338-1.592 1.047.061 1.204.948 1.313 1.67.328 2.213 1.559 2.972 3.657 2.647.686-.106 1.52-.157 1.831.668.358.95-.385 1.523-1.056 1.861-1.993 1.006-2.265 2.474-1.425 4.4zm-22.642-.298c.307.675.888 1.69-.134 2.303-.78.47-1.432-.05-2.05-.615-1.435-1.313-2.856-1.514-4.311.081-.58.637-1.466 1.056-2.283.44-.737-.558-.274-1.414.026-1.968 1.103-2.025.394-3.34-1.403-4.365-.685-.39-1.42-.84-1.099-1.816.294-.894 1.129-.786 1.798-.686 2.099.312 3.332-.425 3.695-2.65.111-.68.252-1.677 1.337-1.663 1.132.014 1.338.944 1.481 1.78.36 2.095 1.542 2.838 3.573 2.54.79-.117 1.76-.246 2.002.97-.057.833-.636 1.282-1.255 1.603-1.766.918-2.228 2.17-1.377 4.046zm-22.524.294c.32.665.605 1.426-.111 1.942-.644.463-1.417.235-1.935-.308-1.682-1.762-3.311-1.503-4.924.046-.542.521-1.177.623-1.75.304-.735-.41-.476-1.185-.178-1.713 1.339-2.376.405-3.853-1.734-4.975-.597-.314-.977-.929-.732-1.622.224-.637.882-.707 1.452-.6 2.48.463 3.891-.513 4.268-3.067.093-.636.364-1.273 1.208-1.25.962.011 1.135.834 1.265 1.478.436 2.14 1.471 3.293 3.794 2.845.671-.128 1.562-.206 1.853.618.32.904-.379 1.499-1.083 1.868-1.957 1.023-2.326 2.5-1.394 4.434zm-22.639 0c.27.55.737 1.406-.021 1.959-.76.554-1.612.144-2.104-.423-1.635-1.889-3.132-1.251-4.656.076-.581.506-1.234.803-1.92.348-.433-.287-.491-.841-.414-1.147.18-.63.231-1.08.425-1.452.856-1.64.197-2.726-1.202-3.563-.8-.478-1.79-.962-1.396-2.08.368-1.046 1.487-.726 2.258-.624 1.937.258 2.847-.587 3.234-2.442.155-.745.202-1.858 1.387-1.88 1.183-.023 1.329 1.108 1.43 1.824.315 2.244 1.618 2.713 3.56 2.485.72-.084 1.666-.3 1.94.77.25.976-.505 1.46-1.195 1.788-2.071.98-2.277 2.42-1.326 4.361z" fill="#fff"/></svg>