<svg width="40" height="40" fill="none" xmlns="http://www.w3.org/2000/svg"><path fill-rule="evenodd" clip-rule="evenodd" d="M20 0c11.046 0 20 8.954 20 20s-8.954 20-20 20C8.955 40 0 31.046 0 20S8.955 0 20 0z" fill="#fff"/><path fill-rule="evenodd" clip-rule="evenodd" d="M19.057 5h2c.358.044.716.081 1.073.133 2.908.427 5.527 1.533 7.715 3.495 4.537 4.07 6.168 9.128 4.799 15.054-.837 3.623-2.905 6.504-5.959 8.633-3.552 2.475-7.492 3.259-11.728 2.402-3.131-.633-5.785-2.17-7.955-4.513-2.081-2.247-3.362-4.888-3.829-7.916-.065-.423-.116-.848-.173-1.271v-1.995c.019-.095.044-.188.057-.284.087-.607.134-1.223.263-1.821.679-3.135 2.202-5.801 4.572-7.969 2.15-1.965 4.665-3.217 7.545-3.715.537-.093 1.08-.156 1.62-.233zm-1.236 17.321c-.113-.15-.169-.244-.244-.32-.753-.756-1.502-1.515-2.266-2.261-.661-.645-1.645-.493-2.008.296-.22.48-.104.995.338 1.438 1.051 1.052 2.105 2.102 3.159 3.152.714.712 1.346.714 2.055.007 2.523-2.516 5.045-5.033 7.566-7.55.09-.089.179-.182.255-.282a1.186 1.186 0 00-.211-1.65c-.52-.411-1.175-.34-1.711.194-2.225 2.218-4.448 4.438-6.671 6.658-.076.076-.137.166-.262.318z" fill="#0C3FF9"/></svg>