<svg width="31" height="32" fill="none" xmlns="http://www.w3.org/2000/svg"><path fill-rule="evenodd" clip-rule="evenodd" d="M24.459 28.207l-1.049.684-1.057.568-1 .443-.588.237c-.168.022-.323.08-.468.167a2.56 2.56 0 00-.575.167l-.48.106-.472.112-1.056.2-.476.062-.579.047-.525.05-.53.003h-.522L14.448 31l-.317-.011c-.189-.066-.386-.041-.58-.048-.095-.073-.207-.054-.315-.059l-1.268-.238-.523-.133-.481-.141a17.798 17.798 0 00-.247-.073.668.668 0 00-.278-.092c-.161-.1-.346-.135-.521-.197l-.531-.217a950.99 950.99 0 00-1.051-.499c-.023-.042-.062-.046-.103-.044a1.365 1.365 0 00-.372-.214l-1.103-.688-.151-.108-.375-.264c-.084-.115-.209-.179-.323-.256l-.152-.106-1.058-.95a3.367 3.367 0 00-.527-.527c-.578-.68-1.146-1.367-1.646-2.108l-.954-1.687c-.057-.128-.096-.266-.189-.376L.948 20.91l-.167-.524-.346-1.167c.01-.111-.035-.211-.067-.313l-.148-.739a.889.889 0 00-.061-.368l-.148-1.482-.006-.103L0 15.686a74.894 74.894 0 01.007-.9c.048-.742.158-1.477.259-2.212.062-.17.093-.347.114-.526.07-.13.08-.276.108-.418l.313-1.109a2.26 2.26 0 00.205-.534l.467-1.105.072-.152a1.02 1.02 0 00.159-.318l.261-.476c.319-.566.687-1.1 1.053-1.636l.108-.151.256-.326A18.275 18.275 0 015.744 3.44c.116-.076.236-.148.323-.26a.275.275 0 00.163-.152c.216-.061.366-.229.549-.343.346-.217.686-.441 1.029-.662.198-.095.4-.182.572-.322.066.008.113-.031.161-.067l.318-.154 1.056-.466c.197-.05.393-.101.568-.21a8.596 8.596 0 001.019-.307c.165-.003.316-.062.469-.116.164-.01.322-.047.475-.106.197-.008.392-.033.578-.103l1.055-.114.472-.053A943.62 943.62 0 0016.236 0l.426.017c.174.033.347.07.526.051l1.053.15c.169.069.347.095.528.101l.473.11.531.152 1.051.328c.166.095.34.169.529.206l1.051.478 1.489.844 1.619 1.203.082.073.443.39.144.137.385.367.141.159.337.365.581.688.365.475.095.111.633.951.597 1.048.481 1.054.409 1.057c.042.162.069.33.157.477.015.186.091.355.144.53l.236 1.049c.038.177.023.364.103.532l.053.524.095.952.005.054.002 1.582-.007.211-.095.949-.011.211-.144.842-.044.217-.296 1.204-.148.535c-.183.334-.25.713-.408 1.057l-.48 1.052-.536.999-.698 1.057-1.042 1.311c-.096.083-.196.163-.261.276l-.79.787a1.125 1.125 0 00-.278.264 6.746 6.746 0 00-.776.636 2.206 2.206 0 00-.492.367c-.015-.001-.027.004-.035.017zm-2.958-17.155c.006-.74-.222-.954-.844-.919-.561.032-1.075.236-1.593.419a2405.601 2405.601 0 00-8.781 3.128c-.509.182-1.04.328-1.488.65-.545.392-.601.917-.161 1.42.164.187.356.342.574.458.907.479 1.842.9 2.782 1.308.989.429 1.755 1.025 2.172 2.074.384.967.88 1.891 1.343 2.825.176.354.399.685.734.915.375.259.66.228.986-.088.267-.258.4-.595.538-.926.466-1.108.804-2.262 1.21-3.392.766-2.128 1.514-4.262 2.177-6.425.156-.511.321-1.021.351-1.447z" fill="#03A8F8"/></svg>