<svg width="32" height="32" fill="none" xmlns="http://www.w3.org/2000/svg"><path fill-rule="evenodd" clip-rule="evenodd" d="M15.713 31.457C6.716 31.445-.117 24.028.002 15.734-.11 7.11 7.012.262 15.12.008c9.17-.289 16.303 7.1 16.303 15.7.002 8.74-7.107 15.76-15.71 15.75zm-.037-25.79c-5.524-.018-10.014 4.505-10.032 10.002-.02 5.72 4.607 10.08 9.995 10.124 5.521-.006 9.998-4.329 10.111-9.877.11-5.404-4.125-10.23-10.075-10.25zm2.449 18.497c.532-.848.869-1.769 1.14-2.712.162-.562.282-1.136.415-1.706.032-.137.064-.242.24-.24 1.218.003 2.436.001 3.655.001-.078 1.426-3.575 4.414-5.45 4.657zm1.805-5.907v-5.035c.078-.004.178-.013.277-.013 1.22 0 2.438.003 3.657-.005.195 0 .313.047.342.25.079.535.198 1.068.23 1.606.055.931.05 1.864-.177 2.78-.104.417-.107.417-.524.417h-3.806zm.146-6.293c-.3.004-.387-.136-.438-.4-.21-1.13-.526-2.229-.997-3.279-.15-.337-.331-.66-.51-1.01 2.253.572 5.032 2.942 5.466 4.651-.05.01-.1.028-.15.028-1.122.003-2.246-.004-3.37.01zm-1.69.008h-5.401c.018-.147.023-.282.053-.41.242-1.05.473-2.109 1.005-3.06a5.91 5.91 0 01.859-1.19c.489-.513 1.074-.516 1.578-.014.319.318.593.7.814 1.093.584 1.032.848 2.178 1.09 3.328.014.074.002.155.002.253zm-6.76-.026h-3.88C8.94 9.574 10.787 8.068 13.2 7.27c-.31.754-.66 1.502-.922 2.28-.26.771-.433 1.573-.652 2.397zm-.136 1.265c-.02.871-.053 1.7-.053 2.528 0 .828.034 1.656.054 2.52h-.236c-1.247 0-2.492-.007-3.738.003-.191.002-.293-.059-.327-.237-.071-.363-.178-.724-.2-1.09-.065-1.139-.122-2.28.168-3.404.066-.255.182-.333.446-.329 1.203.017 2.405.01 3.609.01h.277zm1.703 10.91c-.753-.158-1.425-.49-2.066-.879-1.449-.879-2.998-2.613-3.337-3.732h3.876c.326 1.596.705 3.166 1.527 4.611zm-.143-5.86c-.184.001-.264-.047-.276-.24-.04-.656-.136-1.31-.131-1.965.006-.889.087-1.776.135-2.665.008-.147.086-.184.221-.184 1.8.002 3.598.003 5.397 0 .142 0 .203.047.214.187.04.525.123 1.05.12 1.575-.003.984-.053 1.968-.085 2.953-.008.243-.1.35-.38.343-.855-.023-1.713-.008-2.569-.008-.881 0-1.764-.004-2.646.004zm-.073 1.228h5.445c-.066.327-.12.634-.19.937-.23.976-.488 1.946-1.026 2.803a5.106 5.106 0 01-.87 1.046c-.376.347-.81.328-1.236.04-.49-.332-.785-.82-1.054-1.325-.473-.892-.723-1.86-.948-2.836-.049-.208-.077-.42-.12-.665z" fill="#03A8F8"/></svg>