<svg width="22" height="35" fill="none" xmlns="http://www.w3.org/2000/svg"><path fill-rule="evenodd" clip-rule="evenodd" d="M12.903 34.848c-.314.055-.628.1-.942.152h-1.925c-.67-.136-1.357-.211-2.005-.414-4.43-1.393-7.078-4.366-7.896-8.92a9.187 9.187 0 01-.126-1.596c-.01-4.371-.012-8.743-.004-13.115C.015 5.774 3.63 1.337 8.718.244c6.003-1.29 11.98 2.673 13.073 8.679a11.3 11.3 0 01.194 1.964c.016 4.417.021 8.834.005 13.25-.019 5.27-3.868 9.794-9.086 10.71zM20.11 11.17a11.626 11.626 0 00-.171-1.933c-.915-5.12-6.203-8.422-11.27-7.054-4.091 1.103-6.781 4.638-6.79 8.939-.006 4.258-.01 8.516.009 12.774.003.689.054 1.394.2 2.065 1.429 6.533 9.141 9.358 14.46 5.289 2.164-1.655 3.408-3.87 3.517-6.591.095-2.375.02-4.757.02-7.136h.033c0-2.118.014-4.236-.008-6.353zm-9.107 1.36c-.568.002-.952-.423-.952-1.056 0-.627.387-1.066.946-1.067.56-.002.95.434.951 1.06.002.639-.374 1.06-.945 1.063zm.014-2.744c-.537.009-.949-.397-.962-.984a43.748 43.748 0 01.001-2.081c.014-.575.413-.962.944-.962.53 0 .921.389.945.962.014.352.002.705.002 1.058 0 .34.011.682-.002 1.023-.02.574-.407.975-.928.984z" fill="#fff"/></svg>