<svg width="22" height="35" viewBox="0 0 22 35" fill="none" xmlns="http://www.w3.org/2000/svg">
<path fill-rule="evenodd" clip-rule="evenodd" d="M12.9035 34.8476C12.5893 34.9026 12.2752 34.9486 11.961 34.9996C11.3197 34.9996 10.6774 34.9996 10.0361 34.9996C9.36693 34.8636 8.67877 34.7886 8.0315 34.5856C3.60132 33.1926 0.953391 30.2196 0.134577 25.6656C0.0408274 25.1426 0.00990991 24.6016 0.00891257 24.0696C-0.00106081 19.6986 -0.00305549 15.3266 0.00492322 10.9546C0.0148966 5.77361 3.63025 1.33661 8.71767 0.243606C14.7206 -1.04539 20.6987 2.91661 21.7908 8.92261C21.9085 9.56761 21.9823 10.2316 21.9853 10.8866C22.0012 15.3036 22.0062 19.7206 21.9902 24.1376C21.9713 29.4076 18.1216 33.9306 12.9035 34.8476ZM20.1103 11.1706C20.1043 10.5256 20.0524 9.87261 19.9387 9.23761C19.0242 4.11861 13.7363 0.815606 8.6688 2.18361C4.57772 3.28661 1.8879 6.82161 1.87992 11.1226C1.87294 15.3806 1.86994 19.6386 1.8879 23.8966C1.89089 24.5856 1.94175 25.2906 2.08836 25.9616C3.51655 32.4946 11.229 35.3196 16.5488 31.2506C18.712 29.5956 19.9557 27.3816 20.0654 24.6596C20.1601 22.2846 20.0843 19.9026 20.0843 17.5236C20.0963 17.5236 20.1073 17.5236 20.1182 17.5236C20.1182 15.4056 20.1322 13.2876 20.1103 11.1706ZM11.0026 12.5306C10.4351 12.5326 10.0511 12.1076 10.0511 11.4746C10.0501 10.8476 10.4381 10.4086 10.9966 10.4076C11.5561 10.4056 11.947 10.8416 11.948 11.4686C11.95 12.1066 11.574 12.5286 11.0026 12.5306ZM11.0165 9.78661C10.48 9.79561 10.0681 9.38961 10.0551 8.80261C10.0401 8.10861 10.0381 7.41361 10.0561 6.72161C10.0701 6.14661 10.469 5.75961 10.9996 5.75961C11.5302 5.75961 11.9211 6.14861 11.9451 6.72161C11.959 7.07361 11.947 7.42661 11.947 7.77961C11.947 8.12061 11.958 8.46161 11.9451 8.80261C11.9241 9.37661 11.5381 9.77761 11.0165 9.78661Z" fill="white"/>
</svg>
