<svg width="130" height="38" viewBox="0 0 130 38" fill="none" xmlns="http://www.w3.org/2000/svg">
<path fill-rule="evenodd" clip-rule="evenodd" d="M124.71 32.0985C121.208 36.0251 116.577 37.9919 111.248 37.9929C84.3821 37.9939 57.5162 37.997 30.6503 38C26.68 37.9959 22.7087 37.997 18.7384 37.9868C8.32992 37.9595 -0.0418565 29.4274 0.000157446 18.8951C0.0421714 8.4874 8.41995 0.0516105 18.7564 0.0364109C30.5263 0.020198 42.2972 0.0252645 54.0671 0.0201979C72.9944 0.0232379 91.9206 -0.0507336 110.847 0.0668101C119.355 0.120515 125.489 4.25785 128.619 12.3177C131.464 19.6419 129.794 26.3936 124.71 32.0985ZM111.742 1.33142C92.2348 1.31926 72.7273 1.32939 53.2208 1.32939C46.0624 1.61818 38.9291 0.718367 31.7707 0.880497C29.4519 0.933189 27.1612 1.25137 24.7974 0.982841C21.2792 0.583597 17.675 0.790312 14.2469 1.68506C6.31725 3.75221 1.17755 10.6427 1.08552 18.9336C0.976481 28.7941 8.62202 36.6776 18.3202 36.6959C22.2896 36.703 26.2599 36.6959 30.2292 36.6949C57.3272 36.6949 84.4242 36.6949 111.521 36.6898C112.725 36.6898 113.92 36.6908 115.119 36.4395C122.249 34.9479 129.041 27.647 128.667 18.4695C128.277 8.92414 121.145 1.3375 111.742 1.33142ZM114.2 22.9362C114.846 24.4115 114.42 25.0986 113.206 25.0793C112.441 25.2029 111.999 24.4855 111.5 24.066C110.265 23.0263 109.207 22.9828 108.014 24.1096C107.361 24.7267 106.525 25.5019 105.588 24.9101C104.499 24.222 105.215 23.153 105.592 22.4194C106.654 20.3543 105.302 19.4504 103.977 18.4502C103.386 18.0054 102.45 17.7034 102.808 16.6719C103.162 15.6495 104.127 15.9109 104.818 16.0183C106.932 16.3466 107.975 15.3901 108.416 13.3898C108.571 12.6825 108.621 11.729 109.705 11.6884C110.783 11.6479 110.977 12.5639 111.085 13.2763C111.423 15.4975 112.63 16.3132 114.772 16.0082C115.435 15.9129 116.287 15.7761 116.599 16.6618C116.937 17.6173 116.212 18.2182 115.552 18.5465C113.517 19.5629 113.337 20.9622 114.2 22.9362ZM91.5405 22.9321C91.8056 23.5391 92.3598 24.2879 91.5395 24.8533C90.7953 25.3661 90.087 25.0823 89.4528 24.4744C87.9913 23.0719 86.5229 22.7325 84.9713 24.4156C84.5002 24.9273 83.831 25.2668 83.0477 25.0195C82.3745 24.8067 82.6016 24.2312 82.5165 23.7357C82.5595 23.4874 82.5375 23.1631 82.6706 22.9311C83.83 20.9035 83.2738 19.4585 81.2931 18.3965C80.6879 18.0723 79.9787 17.6649 80.2238 16.756C80.5189 15.6657 81.4732 15.9099 82.1624 16.0173C84.3551 16.3598 85.4515 15.3607 85.8827 13.2783C86.0317 12.5548 86.0887 11.6216 87.2211 11.6864C88.2684 11.7472 88.4255 12.6339 88.5335 13.3553C88.8616 15.5694 90.093 16.3284 92.1907 16.0031C92.877 15.8967 93.7112 15.846 94.0223 16.6709C94.3805 17.6203 93.6372 18.1939 92.966 18.5323C90.9733 19.5385 90.7012 21.0058 91.5405 22.9321ZM68.898 22.6342C69.2051 23.3091 69.7863 24.3234 68.764 24.9374C67.9837 25.4066 67.3315 24.8868 66.7143 24.3224C65.2788 23.0091 63.8583 22.8075 62.4029 24.4034C61.8237 25.0398 60.9374 25.4593 60.1201 24.8422C59.3829 24.2849 59.846 23.4286 60.1461 22.8754C61.2495 20.8498 60.5402 19.5355 58.7426 18.51C58.0584 18.1199 57.3222 17.67 57.6443 16.6942C57.9384 15.8004 58.7727 15.9079 59.4419 16.0082C61.5406 16.3203 62.774 15.5826 63.1371 13.3584C63.2481 12.6784 63.3892 11.6813 64.4735 11.6955C65.6059 11.7087 65.812 12.6389 65.955 13.4749C66.3142 15.5704 67.4966 16.3132 69.5282 16.0143C70.3185 15.8977 71.2878 15.769 71.5299 16.985C71.4729 17.8179 70.8937 18.2668 70.2745 18.5881C68.5089 19.5061 68.0467 20.7575 68.898 22.6342ZM46.3735 22.9281C46.6936 23.5928 46.9787 24.3538 46.2625 24.8696C45.6193 25.3326 44.846 25.1046 44.3279 24.5625C42.6463 22.8004 41.0168 23.0588 39.4042 24.6081C38.8621 25.129 38.2268 25.2313 37.6547 24.9121C36.9194 24.5017 37.1785 23.7265 37.4756 23.1986C38.815 20.8234 37.8807 19.346 35.742 18.2243C35.1448 17.9102 34.7647 17.2951 35.0098 16.602C35.2338 15.9646 35.8921 15.8947 36.4623 16.0011C38.9421 16.4652 40.3535 15.4894 40.7297 12.9348C40.8227 12.2995 41.0938 11.6621 41.9381 11.6854C42.9004 11.6965 43.0734 12.5194 43.2035 13.1628C43.6386 15.3039 44.674 16.4561 46.9967 16.0082C47.668 15.8795 48.5593 15.8015 48.8504 16.6263C49.1705 17.5302 48.4712 18.125 47.767 18.4938C45.8104 19.5173 45.4412 20.9947 46.3735 22.9281ZM23.735 22.9281C24.0041 23.4773 24.4723 24.3345 23.714 24.8868C22.9548 25.4411 22.1015 25.0307 21.6103 24.4642C19.9748 22.5754 18.4783 23.2128 16.9538 24.5402C16.3726 25.0459 15.7204 25.3428 15.0341 24.8878C14.601 24.601 14.543 24.0467 14.62 23.7407C14.7991 23.1105 14.8511 22.6605 15.0451 22.2887C15.9014 20.6491 15.2422 19.5629 13.8428 18.7259C13.0425 18.2476 12.0532 17.7642 12.4473 16.6455C12.8154 15.5998 13.9338 15.92 14.705 16.0224C16.6417 16.2797 17.552 15.4346 17.9391 13.5803C18.0942 12.8345 18.1412 11.7219 19.3256 11.6996C20.509 11.6773 20.655 12.8081 20.756 13.5235C21.0711 15.768 22.3736 16.2372 24.3152 16.0092C25.0365 15.9251 25.9818 15.7092 26.2559 16.7793C26.506 17.7551 25.7507 18.2395 25.0605 18.5668C22.9898 19.5477 22.7837 20.9866 23.735 22.9281Z" fill="white"/>
</svg>
