<svg width="40" height="40" viewBox="0 0 40 40" fill="none" xmlns="http://www.w3.org/2000/svg">
<path fill-rule="evenodd" clip-rule="evenodd" d="M20 0C31.0455 0 40 8.95364 40 20C40 31.0455 31.0455 40 20 40C8.95455 40 0 31.0455 0 20C0 8.95364 8.95455 0 20 0Z" fill="white"/>
<path fill-rule="evenodd" clip-rule="evenodd" d="M19.057 5C19.724 5 20.39 5 21.057 5C21.415 5.044 21.773 5.081 22.13 5.133C25.038 5.56 27.657 6.666 29.845 8.628C34.382 12.698 36.013 17.756 34.644 23.682C33.807 27.305 31.739 30.186 28.685 32.315C25.133 34.79 21.193 35.574 16.957 34.717C13.826 34.084 11.172 32.547 9.002 30.204C6.921 27.957 5.63999 25.316 5.17299 22.288C5.10799 21.865 5.057 21.44 5 21.017C5 20.352 5 19.687 5 19.022C5.019 18.927 5.04399 18.834 5.05699 18.738C5.14399 18.131 5.19099 17.515 5.31999 16.917C5.99899 13.782 7.522 11.116 9.892 8.948C12.042 6.983 14.557 5.731 17.437 5.233C17.974 5.14 18.517 5.077 19.057 5ZM17.821 22.321C17.708 22.171 17.652 22.077 17.577 22.001C16.824 21.245 16.075 20.486 15.311 19.74C14.65 19.095 13.666 19.247 13.303 20.036C13.083 20.516 13.199 21.031 13.641 21.474C14.692 22.526 15.746 23.576 16.8 24.626C17.514 25.338 18.146 25.34 18.855 24.633C21.378 22.117 23.9 19.6 26.421 17.083C26.511 16.994 26.6 16.901 26.676 16.801C27.069 16.288 26.973 15.552 26.465 15.151C25.945 14.74 25.29 14.811 24.754 15.345C22.529 17.563 20.306 19.783 18.083 22.003C18.007 22.079 17.946 22.169 17.821 22.321Z" fill="#0C3FF9"/>
</svg>
