<svg width="31" height="32" viewBox="0 0 31 32" fill="none" xmlns="http://www.w3.org/2000/svg">
<path fill-rule="evenodd" clip-rule="evenodd" d="M24.459 28.207C24.109 28.435 23.76 28.663 23.41 28.891C23.058 29.081 22.705 29.27 22.353 29.459C22.02 29.607 21.687 29.754 21.353 29.902C21.157 29.981 20.961 30.06 20.765 30.139C20.597 30.161 20.442 30.219 20.297 30.306C20.098 30.335 19.908 30.399 19.722 30.473C19.562 30.508 19.402 30.544 19.242 30.579C19.085 30.616 18.927 30.653 18.77 30.691C18.418 30.757 18.066 30.824 17.714 30.891C17.555 30.912 17.397 30.933 17.238 30.953C17.045 30.969 16.852 30.984 16.659 31C16.484 31.017 16.309 31.033 16.134 31.05C15.958 31.051 15.781 31.052 15.604 31.053C15.43 31.053 15.256 31.053 15.082 31.053C14.871 31.035 14.659 31.018 14.448 31C14.342 30.996 14.237 30.993 14.131 30.989C13.942 30.923 13.745 30.948 13.551 30.941C13.456 30.868 13.344 30.887 13.236 30.882C12.813 30.803 12.39 30.723 11.968 30.644C11.793 30.6 11.619 30.555 11.445 30.511C11.285 30.464 11.124 30.417 10.964 30.37C10.882 30.345 10.8 30.321 10.717 30.297C10.631 30.245 10.539 30.216 10.439 30.205C10.278 30.105 10.093 30.07 9.918 30.008C9.741 29.936 9.564 29.863 9.387 29.791C9.036 29.624 8.686 29.458 8.336 29.292C8.313 29.25 8.274 29.246 8.233 29.248C8.12 29.158 7.997 29.085 7.861 29.034C7.494 28.805 7.126 28.575 6.758 28.346C6.708 28.31 6.658 28.274 6.607 28.238C6.482 28.15 6.357 28.062 6.232 27.974C6.148 27.859 6.023 27.795 5.909 27.718C5.858 27.683 5.808 27.647 5.757 27.612C5.404 27.295 5.052 26.978 4.699 26.662C4.54 26.47 4.37 26.288 4.172 26.135C3.594 25.455 3.026 24.768 2.526 24.027C2.208 23.465 1.89 22.902 1.572 22.34C1.515 22.212 1.476 22.074 1.383 21.964C1.238 21.613 1.093 21.262 0.948 20.91C0.892 20.735 0.837 20.561 0.781 20.386C0.666 19.997 0.55 19.608 0.435 19.219C0.445 19.108 0.4 19.008 0.368 18.906C0.319 18.659 0.269 18.413 0.22 18.167C0.232 18.039 0.199 17.918 0.159 17.799C0.109 17.305 0.06 16.811 0.011 16.317C0.009 16.282 0.007 16.248 0.005 16.214C0.004 16.038 0.002 15.862 0 15.686C0 15.528 0.001 15.37 0.002 15.212C0.003 15.07 0.005 14.927 0.007 14.786C0.055 14.044 0.165 13.309 0.266 12.574C0.328 12.404 0.359 12.227 0.38 12.048C0.45 11.918 0.46 11.772 0.488 11.63C0.592 11.261 0.697 10.891 0.801 10.521C0.898 10.354 0.954 10.172 1.006 9.987C1.161 9.619 1.317 9.25 1.473 8.882C1.497 8.831 1.521 8.781 1.545 8.73C1.621 8.636 1.665 8.525 1.704 8.412C1.791 8.253 1.878 8.094 1.965 7.936C2.284 7.37 2.652 6.836 3.018 6.3C3.054 6.25 3.09 6.199 3.126 6.149C3.212 6.04 3.297 5.932 3.382 5.823C4.097 4.956 4.883 4.162 5.744 3.44C5.86 3.364 5.98 3.292 6.067 3.18C6.142 3.152 6.198 3.102 6.23 3.028C6.446 2.967 6.596 2.799 6.779 2.685C7.125 2.468 7.465 2.244 7.808 2.023C8.006 1.928 8.208 1.841 8.38 1.701C8.446 1.709 8.493 1.67 8.541 1.634C8.647 1.583 8.753 1.531 8.859 1.48C9.211 1.324 9.563 1.169 9.915 1.014C10.112 0.964 10.308 0.913 10.483 0.804C10.827 0.716 11.171 0.627 11.502 0.497C11.667 0.494 11.818 0.435 11.971 0.381C12.135 0.371 12.293 0.334 12.446 0.275C12.643 0.267 12.838 0.242 13.024 0.172C13.376 0.134 13.728 0.096 14.079 0.058C14.237 0.041 14.394 0.023 14.551 0.005C15.113 0.004 15.675 0.002 16.236 0C16.378 0.006 16.52 0.011 16.662 0.017C16.836 0.05 17.009 0.087 17.188 0.068C17.539 0.118 17.89 0.168 18.241 0.218C18.41 0.287 18.588 0.313 18.769 0.319C18.927 0.356 19.085 0.393 19.242 0.429C19.419 0.48 19.596 0.531 19.773 0.581C20.123 0.691 20.474 0.8 20.824 0.909C20.99 1.004 21.164 1.078 21.353 1.115C21.703 1.274 22.054 1.434 22.404 1.593C22.9 1.874 23.397 2.156 23.893 2.437C24.432 2.838 24.972 3.239 25.512 3.64C25.539 3.665 25.567 3.689 25.594 3.713C25.742 3.843 25.889 3.973 26.037 4.103C26.085 4.149 26.133 4.194 26.181 4.24C26.31 4.362 26.438 4.485 26.566 4.607C26.613 4.66 26.66 4.713 26.707 4.766C26.82 4.888 26.932 5.009 27.044 5.131C27.238 5.36 27.432 5.589 27.625 5.819C27.747 5.977 27.868 6.136 27.99 6.294C28.021 6.331 28.053 6.368 28.085 6.405C28.296 6.722 28.507 7.039 28.718 7.356C28.917 7.705 29.116 8.055 29.315 8.404C29.475 8.756 29.636 9.107 29.796 9.458C29.933 9.81 30.069 10.163 30.205 10.515C30.247 10.677 30.274 10.845 30.362 10.992C30.377 11.178 30.453 11.347 30.506 11.522C30.585 11.872 30.663 12.222 30.742 12.571C30.78 12.748 30.765 12.935 30.845 13.103C30.863 13.278 30.881 13.452 30.898 13.627C30.93 13.945 30.961 14.262 30.993 14.579C30.995 14.597 30.996 14.615 30.998 14.633C30.999 15.16 30.999 15.688 31 16.215C30.998 16.285 30.995 16.356 30.993 16.426C30.961 16.742 30.93 17.059 30.898 17.375C30.894 17.445 30.891 17.516 30.887 17.586C30.839 17.867 30.791 18.148 30.743 18.428C30.729 18.501 30.714 18.573 30.699 18.645C30.601 19.047 30.502 19.448 30.403 19.849C30.354 20.027 30.304 20.205 30.255 20.384C30.072 20.718 30.005 21.097 29.847 21.441C29.687 21.792 29.527 22.143 29.367 22.493C29.189 22.826 29.01 23.159 28.831 23.492C28.598 23.845 28.366 24.197 28.133 24.549C27.786 24.986 27.438 25.423 27.091 25.86C26.995 25.943 26.895 26.023 26.83 26.136C26.567 26.398 26.303 26.661 26.04 26.923C25.935 26.998 25.837 27.08 25.762 27.187C25.484 27.375 25.233 27.596 24.986 27.823C24.804 27.921 24.642 28.046 24.494 28.19C24.479 28.189 24.467 28.194 24.459 28.207ZM21.501 11.052C21.507 10.312 21.279 10.098 20.657 10.133C20.096 10.165 19.582 10.369 19.064 10.552C16.135 11.59 13.207 12.631 10.283 13.68C9.774 13.862 9.243 14.008 8.795 14.33C8.25 14.722 8.194 15.247 8.634 15.75C8.798 15.937 8.99 16.092 9.208 16.208C10.115 16.687 11.05 17.108 11.99 17.516C12.979 17.945 13.745 18.541 14.162 19.59C14.546 20.557 15.042 21.481 15.505 22.415C15.681 22.769 15.904 23.1 16.239 23.33C16.614 23.589 16.899 23.558 17.225 23.242C17.492 22.984 17.625 22.647 17.763 22.316C18.229 21.208 18.567 20.054 18.973 18.924C19.739 16.796 20.487 14.662 21.15 12.499C21.306 11.988 21.471 11.478 21.501 11.052Z" fill="#03A8F8"/>
</svg>
