<svg width="32" height="32" viewBox="0 0 32 32" fill="none" xmlns="http://www.w3.org/2000/svg">
<path fill-rule="evenodd" clip-rule="evenodd" d="M15.7125 31.4572C6.71651 31.4452 -0.116495 24.0282 0.00150531 15.7342C-0.109495 7.1102 7.01151 0.262202 15.1205 0.0082021C24.2905 -0.280798 31.4225 7.1082 31.4235 15.7082C31.4245 24.4482 24.3155 31.4682 15.7125 31.4572ZM15.6755 5.6662C10.1515 5.6492 5.66151 10.1722 5.64351 15.6692C5.62451 21.3892 10.2505 25.7482 15.6385 25.7932C21.1605 25.7872 25.6375 21.4642 25.7505 15.9162C25.8605 10.5122 21.6245 5.6852 15.6755 5.6662ZM18.1245 24.1642C18.6575 23.3162 18.9935 22.3952 19.2655 21.4522C19.4275 20.8902 19.5475 20.3162 19.6795 19.7462C19.7115 19.6092 19.7435 19.5042 19.9195 19.5052C21.1385 19.5092 22.3565 19.5072 23.5755 19.5072C23.4965 20.9332 20.0005 23.9212 18.1245 24.1642ZM19.9295 18.2572C19.9295 16.5632 19.9295 14.9072 19.9295 13.2222C20.0075 13.2182 20.1075 13.2092 20.2075 13.2092C21.4265 13.2082 22.6455 13.2122 23.8645 13.2042C24.0595 13.2032 24.1775 13.2512 24.2065 13.4542C24.2845 13.9892 24.4035 14.5222 24.4355 15.0602C24.4915 15.9912 24.4865 16.9242 24.2595 17.8402C24.1555 18.2572 24.1525 18.2572 23.7345 18.2572C22.5415 18.2572 21.3485 18.2572 20.1555 18.2572C20.0795 18.2572 20.0025 18.2572 19.9295 18.2572ZM20.0765 11.9642C19.7755 11.9682 19.6885 11.8282 19.6385 11.5632C19.4285 10.4342 19.1125 9.3352 18.6415 8.2852C18.4905 7.9482 18.3095 7.6252 18.1315 7.2752C20.3835 7.8472 23.1635 10.2172 23.5975 11.9262C23.5475 11.9362 23.4975 11.9542 23.4475 11.9542C22.3245 11.9572 21.2005 11.9502 20.0765 11.9642ZM18.3855 11.9722C16.5805 11.9722 14.8005 11.9722 12.9845 11.9722C13.0025 11.8252 13.0075 11.6902 13.0375 11.5612C13.2805 10.5112 13.5115 9.4532 14.0425 8.5022C14.2805 8.0772 14.5665 7.6632 14.9015 7.3122C15.3905 6.7992 15.9755 6.7962 16.4795 7.2982C16.7985 7.6162 17.0725 7.9972 17.2945 8.3912C17.8785 9.4232 18.1425 10.5692 18.3835 11.7192C18.3985 11.7932 18.3855 11.8742 18.3855 11.9722ZM11.6255 11.9462C10.3765 11.9462 9.09251 11.9462 7.74651 11.9462C8.93851 9.5742 10.7865 8.0682 13.1995 7.2692C12.8905 8.0232 12.5395 8.7712 12.2775 9.5492C12.0175 10.3202 11.8455 11.1222 11.6255 11.9462ZM11.4895 13.2112C11.4695 14.0822 11.4375 14.9102 11.4375 15.7392C11.4375 16.5672 11.4705 17.3952 11.4905 18.2582C11.4225 18.2582 11.3385 18.2582 11.2555 18.2582C10.0085 18.2582 8.76251 18.2522 7.51651 18.2622C7.32551 18.2642 7.22351 18.2032 7.18951 18.0252C7.11851 17.6622 7.01151 17.3012 6.99051 16.9342C6.92451 15.7962 6.86751 14.6552 7.15751 13.5312C7.22351 13.2762 7.33951 13.1982 7.60351 13.2022C8.80651 13.2192 10.0095 13.2112 11.2125 13.2112C11.3055 13.2112 11.3995 13.2112 11.4895 13.2112ZM13.1925 24.1212C12.4395 23.9632 11.7685 23.6312 11.1275 23.2422C9.6785 22.3632 8.1285 20.6292 7.78951 19.5102C9.0885 19.5102 10.3675 19.5102 11.6665 19.5102C11.9925 21.1062 12.3715 22.6762 13.1925 24.1212ZM13.0495 18.2612C12.8665 18.2622 12.7855 18.2142 12.7745 18.0202C12.7345 17.3652 12.6375 16.7102 12.6425 16.0562C12.6495 15.1672 12.7305 14.2802 12.7785 13.3912C12.7855 13.2442 12.8645 13.2072 12.9995 13.2072C14.7985 13.2092 16.5975 13.2102 18.3965 13.2062C18.5375 13.2062 18.5995 13.2542 18.6105 13.3942C18.6505 13.9192 18.7325 14.4442 18.7305 14.9692C18.7265 15.9532 18.6765 16.9372 18.6455 17.9222C18.6375 18.1652 18.5445 18.2722 18.2655 18.2652C17.4095 18.2422 16.5525 18.2572 15.6965 18.2572C14.8145 18.2572 13.9325 18.2532 13.0495 18.2612ZM12.9775 19.4892C14.7965 19.4892 16.5765 19.4892 18.4225 19.4892C18.3565 19.8162 18.3025 20.1232 18.2315 20.4262C18.0025 21.4022 17.7435 22.3722 17.2065 23.2292C16.9675 23.6112 16.6685 23.9712 16.3365 24.2752C15.9595 24.6222 15.5265 24.6032 15.0995 24.3142C14.6105 23.9832 14.3145 23.4952 14.0455 22.9902C13.5725 22.0982 13.3235 21.1292 13.0975 20.1542C13.0495 19.9462 13.0215 19.7342 12.9775 19.4892Z" fill="#03A8F8"/>
</svg>
